<svg width="60" height="60" viewBox="0 0 60 60" fill="none" xmlns="http://www.w3.org/2000/svg">
<path fill-rule="evenodd" clip-rule="evenodd" d="M9.69015 17.9033C11.8288 16.993 13.302 16.8549 18.1319 17.9912H18.134C18.1633 17.9996 18.1926 18.0079 18.2198 18.0184C20.2078 18.7467 22.0724 19.7741 23.7463 21.0695C24.8679 21.9797 25.8138 23.0888 26.5336 24.3403C26.7073 24.6374 26.6111 25.0183 26.3139 25.1941C26.0188 25.3678 25.6359 25.2694 25.4622 24.9744C24.8156 23.8506 23.9702 22.8545 22.9636 22.0384C21.3983 20.833 19.6572 19.8746 17.8011 19.1966C12.5005 17.9515 11.605 18.3679 8.87823 19.6402C8.48272 19.8244 8.0558 20.0252 7.52432 20.2596L7.52641 20.2617C6.36289 20.9062 5.49862 21.9818 5.11778 23.2562C4.76413 24.7378 4.72646 26.278 5.00687 27.7784C5.26009 28.4648 5.62841 29.1031 6.09925 29.6639C6.27922 29.8919 6.5115 30.0761 6.77516 30.2017C6.90491 30.2603 7.05766 30.2456 7.17485 30.1661C7.34854 30.0342 7.49084 29.8647 7.59338 29.6701C8.00981 28.9524 8.36347 28.1969 8.64809 27.4164C9.33868 25.623 9.67768 24.7441 12.7329 24.5704C19.7915 24.1707 22.4572 29.3856 25.6361 35.5986L25.7638 35.8476V35.8497C25.9793 36.262 25.9856 36.7537 25.7805 37.1723C25.5754 37.5908 25.1841 37.8859 24.7258 37.9696C23.3593 38.1977 21.9636 38.1642 20.6096 37.8754C19.151 37.5887 17.7448 37.0865 16.4369 36.3855L16.2883 36.3604V36.3583C15.4324 36.1448 14.5305 36.1993 13.706 36.5152C13.1158 36.825 12.7141 37.4025 12.6283 38.0638C12.6241 38.0847 12.6283 38.0763 12.6199 38.1203C12.5864 39.0745 14.4238 40.2883 16.8533 41.8912C17.4288 42.2721 18.0377 42.6718 18.6571 43.0966L18.6551 43.0987C19.7453 43.76 20.9381 44.2413 22.1832 44.5196C23.6627 44.9088 25.1862 45.116 26.7158 45.1389C29.1726 45.0469 31.6042 44.6116 33.9373 43.8415C34.6885 43.626 35.3938 43.423 36.1053 43.2619C36.2601 43.2263 36.4233 43.2535 36.5614 43.3351C37.5199 43.9106 38.0074 45.0971 38.5829 46.4866C39.3655 48.3805 40.3261 50.7033 42.8121 51.8523C44.2832 50.7139 45.8841 49.7555 47.5833 48.9959C51.373 47.1313 55.0501 45.317 55.5794 38.1225C55.1797 37.7102 54.7548 37.3231 54.307 36.9632C52.7355 35.6385 51.2581 34.2072 49.8874 32.6774C48.9959 31.7253 47.868 30.296 46.5475 28.624C43.0821 24.2316 38.2772 18.1379 33.3765 15.1556C33.2718 15.0928 32.9893 14.9171 32.6566 14.712C29.7206 12.8914 22.4089 8.36698 19.0082 8.57859C18.079 8.63718 17.5161 9.16873 17.5957 10.4473C17.6061 10.6168 17.627 10.8763 17.6522 11.1567C17.6773 11.435 17.6982 11.7405 17.7191 12.0859C18.0372 12.134 18.3532 12.1905 18.6629 12.2616L18.665 12.2595C20.2512 12.5985 21.7223 13.3477 22.9298 14.4338C23.1871 14.6619 23.2102 15.0574 22.98 15.3148C22.7519 15.5701 22.3564 15.5931 22.099 15.365C21.0485 14.4212 19.7699 13.7683 18.3887 13.4733C16.9386 13.1971 15.4654 13.0757 13.99 13.1092C12.8014 13.0464 11.6567 13.5675 10.9264 14.5071C10.2191 15.5094 9.7901 16.6813 9.68547 17.9034L9.69015 17.9033ZM15.3735 25.9937L15.4614 30.8109C15.4698 31.2776 15.3149 31.7317 15.0262 32.0979C14.9027 32.2423 14.7395 32.3469 14.5574 32.3971C14.3921 32.4411 14.2163 32.4306 14.0552 32.3678C13.7329 32.2234 13.4714 31.9723 13.3144 31.6563C13.1449 31.2043 12.9189 30.1685 12.5485 28.4672C12.3999 27.7829 12.2241 26.9856 11.9793 25.8953C12.2199 25.8576 12.492 25.8304 12.8038 25.8137C13.6639 25.7572 14.5281 25.8179 15.3735 25.9937ZM33.7491 22.0093H33.747C33.408 21.9653 33.1653 21.6535 33.2092 21.3145C33.251 20.9734 33.5628 20.7307 33.904 20.7746C37.0262 21.1764 39.4641 23.673 39.7904 26.8036C39.826 27.1468 39.5769 27.4523 39.2337 27.4878C38.8905 27.5234 38.585 27.2744 38.5495 26.9312C38.2816 24.3761 36.2936 22.3378 33.7447 22.0093H33.7491Z" fill="white"/>
</svg>
