<svg width="95" height="81" viewBox="0 0 95 81" fill="none" xmlns="http://www.w3.org/2000/svg">
<path fill-rule="evenodd" clip-rule="evenodd" d="M9.08854 17.4195C13.0807 15.7203 15.8307 15.4625 24.8465 17.5836H24.8505C24.9051 17.5992 24.9598 17.6149 25.0106 17.6344C28.7215 18.9938 32.202 20.9117 35.3266 23.3297C37.4204 25.0289 39.186 27.0992 40.5297 29.4352C40.8539 29.9899 40.6742 30.7008 40.1195 31.029C39.5688 31.3532 38.8539 31.1696 38.5297 30.6188C37.3227 28.5211 35.7445 26.6618 33.8656 25.1383C30.9437 22.8883 27.6938 21.0992 24.229 19.8336C14.3345 17.5094 12.663 18.2867 7.57295 20.6617C6.83467 21.0055 6.03775 21.3805 5.04565 21.8179L5.04956 21.8218C2.87766 23.0249 1.26436 25.0328 0.553457 27.4117C-0.106703 30.1773 -0.177013 33.0523 0.346427 35.8531C0.819087 37.1343 1.50663 38.3258 2.38553 39.3726C2.72147 39.7983 3.15506 40.1421 3.64723 40.3764C3.88942 40.4858 4.17457 40.4585 4.39332 40.31C4.71754 40.064 4.98316 39.7475 5.17457 39.3843C5.95191 38.0445 6.61207 36.6343 7.14337 35.1773C8.43247 31.8296 9.06527 30.189 14.7684 29.8648C27.9444 29.1187 32.9204 38.8531 38.8544 50.4508L39.0926 50.9156V50.9195C39.495 51.689 39.5067 52.607 39.1239 53.3883C38.7411 54.1696 38.0106 54.7203 37.1551 54.8766C34.6043 55.3024 31.9989 55.2399 29.4715 54.7008C26.7488 54.1657 24.1238 53.2281 21.6824 51.9196L21.4051 51.8728V51.8689C19.8074 51.4704 18.1239 51.572 16.5848 52.1618C15.4832 52.7399 14.7332 53.818 14.5731 55.0524C14.5652 55.0915 14.5731 55.0759 14.5574 55.1579C14.4949 56.9391 17.9246 59.2048 22.4597 62.197C23.5339 62.9079 24.6706 63.654 25.8269 64.447L25.823 64.4509C27.8582 65.6853 30.0847 66.5837 32.4089 67.1032C35.1706 67.8298 38.0144 68.2165 40.8698 68.2594C45.4557 68.0875 49.9948 67.275 54.3498 65.8375C55.7521 65.4352 57.0686 65.0562 58.3967 64.7555C58.6858 64.6891 58.9905 64.7399 59.2483 64.8922C61.0374 65.9664 61.9475 68.1813 63.0217 70.775C64.4826 74.3102 66.2756 78.6461 70.9162 80.791C73.6623 78.666 76.6506 76.8769 79.8224 75.459C86.8966 71.9785 93.7604 68.5918 94.7484 55.162C94.0023 54.3925 93.2093 53.6698 92.3734 52.9979C89.4398 50.5252 86.682 47.8534 84.1234 44.9979C82.4593 43.2206 80.3539 40.5526 77.889 37.4315C71.4202 29.2323 62.451 17.8575 53.303 12.2905C53.1077 12.1733 52.5803 11.8452 51.9592 11.4624C46.4787 8.064 32.8302 -0.381604 26.4822 0.0133956C24.7478 0.122776 23.697 1.115 23.8455 3.5017C23.865 3.81811 23.9041 4.30248 23.951 4.8259C23.9978 5.34543 24.0369 5.9157 24.076 6.5603C24.6697 6.65014 25.2596 6.75561 25.8377 6.88842L25.8416 6.88451C28.8025 7.51732 31.5486 8.91571 33.8025 10.9431C34.2829 11.3689 34.3259 12.1072 33.8962 12.5876C33.4704 13.0642 32.7321 13.1071 32.2517 12.6814C30.2908 10.9197 27.904 9.70086 25.3259 9.15016C22.6189 8.63454 19.8689 8.40797 17.115 8.47047C14.8962 8.35328 12.7595 9.32594 11.3962 11.0799C10.0759 12.951 9.27511 15.1385 9.07981 17.4197L9.08854 17.4195ZM19.6975 32.5215L19.8616 41.5137C19.8772 42.3848 19.5882 43.2325 19.0491 43.916C18.8186 44.1856 18.5139 44.3809 18.1741 44.4746C17.8655 44.5567 17.5374 44.5371 17.2366 44.4199C16.635 44.1504 16.1468 43.6817 15.8538 43.0918C15.5374 42.2481 15.1155 40.3145 14.4241 37.1387C14.1468 35.8614 13.8186 34.3731 13.3616 32.3379C13.8108 32.2676 14.3186 32.2169 14.9007 32.1856C16.5062 32.0801 18.1194 32.1934 19.6975 32.5215ZM53.9985 25.084H53.9946C53.3618 25.002 52.9087 24.42 52.9907 23.7871C53.0689 23.1504 53.6509 22.6973 54.2876 22.7793C60.1157 23.5293 64.6666 28.1895 65.2756 34.0333C65.342 34.674 64.8772 35.2442 64.2365 35.3106C63.5959 35.377 63.0256 34.9122 62.9592 34.2715C62.4592 29.502 58.7483 25.6973 53.9904 25.084H53.9985Z" fill="black"/>
</svg>
